<?xml version="1.0" encoding="utf-8"?>
<!-- Generator: Adobe Illustrator 23.0.6, SVG Export Plug-In . SVG Version: 6.00 Build 0)  -->
<svg version="1.1" id="Capa_1" xmlns="http://www.w3.org/2000/svg" xmlns:xlink="http://www.w3.org/1999/xlink" x="0px" y="0px"
	 viewBox="0 0 540.7 125.2" enable-background="new 0 0 540.7 125.2" xml:space="preserve">
<g display="none">
	<rect display="inline" fill="#FFFFFF" width="540.7" height="125.2"/>
	<g id="linea" display="inline">
		<line fill="#FFFFFF" stroke="#D8D8D8" stroke-miterlimit="10" x1="0" y1="118.4" x2="540.7" y2="118.4"/>
	</g>
</g>
<g id="contenedor-carpeta" display="none">
	<g id="carpeta_1_" display="inline">
		<path fill="#EBF5F9" stroke="#000000" stroke-width="4.25" stroke-miterlimit="10" d="M321.1,123.1h-90.9c-0.2,0-0.3-0.1-0.3-0.3
			l0,0v-85c0-3.6,2.9-6.5,6.5-6.5l0,0h24.7c3.2,0,5.8,2.6,5.8,5.8l0,0v6.2h61.7c0.4,0,0.7,0.3,0.7,0.8v70.8
			C329.4,119.3,325.7,123.1,321.1,123.1L321.1,123.1z"/>
		<path fill="#89C3DD" stroke="#000000" stroke-width="4.25" stroke-miterlimit="10" d="M319.1,123.1h-97.6c-4.5,0-8.1-3.6-8.1-8.1
			V51.7c0-0.2,0.1-0.3,0.3-0.3h97.1c0.2,0,0.3,0.1,0.3,0.3V114C311.1,122.1,319.1,123.1,319.1,123.1z"/>
		<polygon fill="#B4DDF3" points="309,98 215.3,70 215.3,52.9 309,52.9 		"/>
	</g>
	<g id="estrela-carpeta" display="inline">
		<path fill="#FFFFFF" d="M294,66.9c-0.6,0.7-6.6,6.6-13.8,0c-0.4-0.4-1-0.4-1.4,0.1c-0.4,0.4-0.4,1,0.1,1.4
			c7.2,6.7,1.7,13,1.1,13.7l-0.1,0.1c-0.3,0.4-0.3,1,0.1,1.4s1,0.4,1.4,0l0,0c0.7-0.7,6.6-6.6,13.8,0c0.4,0.4,1,0.4,1.4,0l0,0
			c0.4-0.2,0.4-0.9,0-1.3c-7.2-6.7-1.7-13-1.1-13.7l0.1-0.1c0.4-0.4,0.4-1,0-1.4c0,0-0.1,0-0.1-0.1C295,66.5,294.4,66.5,294,66.9
			L294,66.9z M291.8,79c-2.6-0.9-5.4-0.8-7.9,0.3c0.9-2.6,0.8-5.4-0.3-7.9c2.6,0.9,5.4,0.8,7.9-0.3C290.6,73.7,290.7,76.5,291.8,79z
			"/>
	</g>
	<g id="cruz-carpeta" display="inline">
		
			<ellipse transform="matrix(0.2649 -0.9643 0.9643 0.2649 75.4614 308.3046)" fill="#FFFFFF" cx="239.9" cy="104.7" rx="5.3" ry="0.8"/>
		
			<ellipse transform="matrix(0.2649 -0.9643 0.9643 0.2649 75.4614 308.3046)" fill="#FFFFFF" cx="239.9" cy="104.7" rx="0.8" ry="5.3"/>
	</g>
</g>
<g id="estrella1" display="none">
	<path display="inline" fill="#B4DDF3" d="M181.5,63.6c-0.9,0.2-9.2,1.8-11.3-7.8c-0.1-0.6-0.7-0.9-1.2-0.8
		c-0.6,0.1-0.9,0.7-0.8,1.2c2.2,9.5-5.9,11.7-6.9,11.9h-0.1c-0.5,0.2-0.8,0.7-0.7,1.2s0.6,0.9,1.2,0.8l0,0c1-0.2,9.2-1.8,11.3,7.8
		c0.1,0.5,0.6,0.9,1.2,0.8l0,0c0.5,0.1,0.8-0.5,0.7-1.1c-2.2-9.6,5.9-11.7,6.9-11.9h0.1c0.5-0.1,0.9-0.6,0.8-1.2v-0.1
		C182.6,63.8,182,63.5,181.5,63.6z M172.8,72.4c-1.6-2.2-4-3.7-6.7-4.1c2.2-1.6,3.7-3.9,4.2-6.6c1.6,2.2,4,3.7,6.6,4.1
		C174.8,67.3,173.3,69.7,172.8,72.4z"/>
</g>
<g id="estrella2" display="none">
	<path display="inline" fill="#A8D2E5" d="M410,37.4c-0.3-0.5-0.8-0.9-1.4-1c-3.1-0.2-30-3.2-27.8-34.5c0.1-1-0.7-1.8-1.6-1.9
		c-1-0.1-1.8,0.7-1.9,1.7l0,0C375,33,348,32.2,345,32c-0.4,0-0.8,0.1-1.1,0.3c-0.8,0.4-1.1,1.5-0.7,2.3c0.3,0.6,0.9,1,1.6,1.1h0.1
		c3.1,0.2,29.9,3.2,27.7,34.4c-0.1,1,0.7,1.8,1.6,1.9c1,0.1,1.8-0.7,1.9-1.6c2.1-31.2,29-30.5,32.2-30.3c0.7,0,1.3-0.3,1.7-0.8
		C410.3,38.6,410.3,37.9,410,37.4z M375.2,56.9c-3.1-13.2-12.3-19.4-19.8-22.4c7.8-1.9,17.8-6.8,22.6-19.5
		c3.1,13.2,12.3,19.4,19.8,22.4C390,39.3,380,44.2,375.2,56.9z"/>
</g>
<g id="estrella3" display="none">
	<path display="inline" fill="#B3DDF3" d="M443.7,74.2c0.8,0.2,1.6-0.3,1.8-1.1l0,0c0.2-0.8-0.2-1.6-1-1.8c-1.3-0.4-13-4.1-9.1-17.9
		c0.3-0.8-0.1-1.6-0.9-1.9c-0.8-0.3-1.6,0.1-1.9,0.9c0,0.1,0,0.2-0.1,0.2c-3.9,13.8-15.8,10.9-17.1,10.5h-0.1
		c-0.8-0.1-1.6,0.4-1.7,1.2c-0.1,0.7,0.3,1.4,1,1.6c1.4,0.4,13,4.1,9.1,17.9c-0.2,0.8,0.2,1.6,1,1.8c0.7,0.2,1.4-0.2,1.7-0.8v-0.1
		c3.9-13.8,15.8-10.9,17.1-10.5H443.7L443.7,74.2z M427.3,76.3c-0.5-3.9-2.6-7.5-5.7-10c3.9-0.5,7.6-2.5,10.1-5.6
		c0.5,3.9,2.6,7.5,5.7,10C433.4,71.2,429.8,73.2,427.3,76.3z"/>
</g>
<g id="cruz1" display="none">
	
		<ellipse transform="matrix(0.9834 -0.1812 0.1812 0.9834 -13.5101 19.1233)" display="inline" fill="#B4DDF3" cx="97.9" cy="83.5" rx="1.4" ry="8.9"/>
	
		<ellipse transform="matrix(0.9834 -0.1812 0.1812 0.9834 -13.5101 19.1233)" display="inline" fill="#B4DDF3" cx="97.9" cy="83.5" rx="8.9" ry="1.4"/>
</g>
<g id="cruz2" display="none">
	
		<ellipse transform="matrix(0.5408 -0.8412 0.8412 0.5408 -3.5629 179.4876)" display="inline" fill="#A9D6EA" cx="162.6" cy="93" rx="6.7" ry="1"/>
	
		<ellipse transform="matrix(0.5372 -0.8435 0.8435 0.5372 -2.5217 179.725)" display="inline" fill="#A9D6EA" cx="162.5" cy="92.2" rx="1.1" ry="6.7"/>
</g>
<g id="cruz3" display="none">
	<ellipse display="inline" fill="#B4DDF3" cx="195.5" cy="27" rx="2" ry="12.8"/>
	<ellipse display="inline" fill="#B4DDF3" cx="195.5" cy="27" rx="12.8" ry="2"/>
</g>
<g id="cruz4">
	
		<ellipse transform="matrix(0.5408 -0.8412 0.8412 0.5408 103.8493 381.7873)" fill="#B4DDF3" cx="401.6" cy="95.8" rx="1" ry="6.7"/>
	
		<ellipse transform="matrix(0.5372 -0.8435 0.8435 0.5372 106.1082 381.6659)" fill="#B4DDF3" cx="400.8" cy="94.1" rx="6.7" ry="1.1"/>
</g>
</svg>
