<?xml version="1.0" encoding="utf-8"?>
<!-- Generator: Adobe Illustrator 23.0.6, SVG Export Plug-In . SVG Version: 6.00 Build 0)  -->
<svg version="1.1" id="Capa_1" xmlns="http://www.w3.org/2000/svg" xmlns:xlink="http://www.w3.org/1999/xlink" x="0px" y="0px"
	 viewBox="0 0 28.2 28.5" enable-background="new 0 0 28.2 28.5" xml:space="preserve">
<g display="none">
	<rect x="-156.9" y="-52.9" display="inline" fill="#FFFFFF" width="540.7" height="125.2"/>
</g>
<g id="estrella1">
	<path fill="#B4DDF3" d="M24.6,10.7c-0.9,0.2-9.2,1.8-11.3-7.8c-0.1-0.6-0.7-0.9-1.2-0.8c-0.6,0.1-0.9,0.7-0.8,1.2
		c2.2,9.5-5.9,11.7-6.9,11.9H4.3c-0.5,0.2-0.8,0.7-0.7,1.2s0.6,0.9,1.2,0.8l0,0c1-0.2,9.2-1.8,11.3,7.8c0.1,0.5,0.6,0.9,1.2,0.8l0,0
		c0.5,0.1,0.8-0.5,0.7-1.1c-2.2-9.6,5.9-11.7,6.9-11.9H25c0.5-0.1,0.9-0.6,0.8-1.2v-0.1C25.7,10.9,25.1,10.6,24.6,10.7z M15.9,19.5
		c-1.6-2.2-4-3.7-6.7-4.1c2.2-1.6,3.7-3.9,4.2-6.6c1.6,2.2,4,3.7,6.6,4.1C17.9,14.4,16.4,16.8,15.9,19.5z"/>
</g>
</svg>
