<?xml version="1.0" encoding="utf-8"?>
<!-- Generator: Adobe Illustrator 23.0.6, SVG Export Plug-In . SVG Version: 6.00 Build 0)  -->
<svg version="1.1" id="Capa_1" xmlns="http://www.w3.org/2000/svg" xmlns:xlink="http://www.w3.org/1999/xlink" x="0px" y="0px"
	 viewBox="0 0 36.3 38.6" enable-background="new 0 0 36.3 38.6" xml:space="preserve">
<g display="none">
	<rect x="-441" y="-51.4" display="inline" fill="#FFFFFF" width="540.7" height="125.2"/>
</g>
<g id="estrella3">
	<path fill="#B3DDF3" d="M31.9,25.4c0.8,0.2,1.6-0.3,1.8-1.1l0,0c0.2-0.8-0.2-1.6-1-1.8c-1.3-0.4-13-4.1-9.1-17.9
		c0.3-0.8-0.1-1.6-0.9-1.9c-0.8-0.3-1.6,0.1-1.9,0.9c0,0.1,0,0.2-0.1,0.2C16.8,17.6,4.9,14.7,3.6,14.3H3.5c-0.8-0.1-1.6,0.4-1.7,1.2
		c-0.1,0.7,0.3,1.4,1,1.6c1.4,0.4,13,4.1,9.1,17.9c-0.2,0.8,0.2,1.6,1,1.8c0.7,0.2,1.4-0.2,1.7-0.8v-0.1
		C18.5,22.1,30.4,25,31.7,25.4H31.9L31.9,25.4z M15.5,27.5c-0.5-3.9-2.6-7.5-5.7-10c3.9-0.5,7.6-2.5,10.1-5.6
		c0.5,3.9,2.6,7.5,5.7,10C21.6,22.4,18,24.4,15.5,27.5z"/>
</g>
</svg>
