<?xml version="1.0" encoding="utf-8"?>
<!-- Generator: Adobe Illustrator 23.0.6, SVG Export Plug-In . SVG Version: 6.00 Build 0)  -->
<svg version="1.1" id="Capa_1" xmlns="http://www.w3.org/2000/svg" xmlns:xlink="http://www.w3.org/1999/xlink" x="0px" y="0px"
	 viewBox="0 0 72.6 77.5" enable-background="new 0 0 72.6 77.5" xml:space="preserve">
<g display="none">
	<rect x="-341" y="2.3" display="inline" fill="#FFFFFF" width="540.7" height="125.2"/>
</g>
<g id="estrella2">
	<path fill="#A8D2E5" d="M69,39.7c-0.3-0.5-0.8-0.9-1.4-1c-3.1-0.2-30-3.2-27.8-34.5c0.1-1-0.7-1.8-1.6-1.9c-1-0.1-1.8,0.7-1.9,1.7
		l0,0C34,35.3,7,34.5,4,34.3c-0.4,0-0.8,0.1-1.1,0.3c-0.8,0.4-1.1,1.5-0.7,2.3c0.3,0.6,0.9,1,1.6,1.1h0.1
		c3.1,0.2,29.9,3.2,27.7,34.4c-0.1,1,0.7,1.8,1.6,1.9c1,0.1,1.8-0.7,1.9-1.6c2.1-31.2,29-30.5,32.2-30.3c0.7,0,1.3-0.3,1.7-0.8
		C69.3,40.9,69.3,40.2,69,39.7z M34.2,59.2C31.1,46,21.9,39.8,14.4,36.8C22.2,34.9,32.2,30,37,17.3c3.1,13.2,12.3,19.4,19.8,22.4
		C49,41.6,39,46.5,34.2,59.2z"/>
</g>
</svg>
