<?xml version="1.0" encoding="utf-8"?>
<!-- Generator: Adobe Illustrator 23.0.6, SVG Export Plug-In . SVG Version: 6.00 Build 0)  -->
<svg version="1.1" id="Capa_1" xmlns="http://www.w3.org/2000/svg" xmlns:xlink="http://www.w3.org/1999/xlink" x="0px" y="0px"
	 viewBox="0 0 540.7 117.1" enable-background="new 0 0 540.7 117.1" xml:space="preserve">
<g id="linea" display="none">
	<line display="inline" fill="none" stroke="#D8D8D8" stroke-miterlimit="10" x1="0" y1="110.2" x2="540.7" y2="110.2"/>
</g>
<g id="carpeta" display="none">
	<path display="inline" fill="#EDEBEA" stroke="#000000" stroke-width="4.25" stroke-miterlimit="10" d="M321.1,115h-90.9
		c-0.2,0-0.3-0.1-0.3-0.3l0,0v-85c0-3.6,2.9-6.5,6.5-6.5h24.7c3.2,0,5.8,2.6,5.8,5.8v6.2h61.7c0.4,0,0.7,0.3,0.7,0.7v70.8
		C329.4,111.3,325.7,115,321.1,115L321.1,115z"/>
	<path display="inline" fill="#C0BB98" stroke="#000000" stroke-width="4.25" stroke-miterlimit="10" d="M319.1,115h-97.6
		c-4.5,0-8.1-3.6-8.1-8.1V43.6c0-0.1,0.1-0.3,0.3-0.3l0,0h97.1c0.2,0,0.3,0.1,0.3,0.3v62.3C311.1,114,319.1,115,319.1,115z"/>
	<polygon display="inline" fill="#E2E0D3" points="309,89.9 215.3,61.9 215.3,44.8 309,44.8 	"/>
</g>
<g id="sol" display="none">
	<g id="R-Green" display="inline">
		<circle fill="#C0BB98" cx="90.9" cy="19.3" r="14.3"/>
	</g>
</g>
<g id="cactus1" display="none">
	<path display="inline" fill="#E2E0D3" d="M149.5,70.9c-1.9,0-3.4,1.4-3.4,3.3v0.1v8c0,0.6-0.5,1.1-1.1,1.1l0,0
		c-0.6,0-1.1-0.5-1.1-1.1V68.6c0.1-2.5-1.8-4.7-4.4-4.8c-2.5-0.1-4.7,1.8-4.8,4.4c0,0.1,0,0.3,0,0.4v24c0,0.6-0.5,1.1-1.1,1.1l0,0
		c-0.6,0-1.1-0.5-1.1-1.1v-2.3c0-1.9-1.5-3.4-3.4-3.4c-1.9,0-3.4,1.5-3.4,3.4v5.8c0,6.9,9.1,4.4,9.1,11.3v2.3h9.1V97.2
		c0-7,9.1-4.5,9.1-11.3V74.3C152.9,72.4,151.4,70.9,149.5,70.9L149.5,70.9z"/>
</g>
<g id="cactus2">
	<path fill="#D7D4C6" d="M413.8,23.6c-2.7-0.1-4.9,2.1-4.9,4.7c0,0.1,0,0.1,0,0.2v21.6c0,0.9-0.7,1.6-1.6,1.6l0,0l0,0
		c-0.9,0-1.6-0.7-1.6-1.6l0,0v-5.8c-0.1-3.6-3.2-6.5-6.8-6.3c-3.4,0.1-6.2,2.9-6.3,6.3v39.6c-0.1,1.6-1.4,2.7-3,2.6l0,0h-0.3
		c-1.5,0-3.1-0.6-3.1-2.6v-5.4c-0.1-2.7-2.4-4.8-5.2-4.7c-2.6,0.1-4.6,2.2-4.7,4.7V87c0,9.9,16.2,9.3,16.2,19.3v3.3h13.2v-5.3
		c1.3-3,6.3-2.2,6.3-6.5V84.4c0-1.4-1.1-2.4-2.5-2.4c-1.3,0-2.4,1-2.5,2.4c0,0,0,0,0,0.1v10.8c0,0.4-0.4,0.8-0.8,0.8l0,0
		c-0.2,0-0.3-0.1-0.5-0.2V71.5c0-10,13.2-6.4,13.2-16.3V28.5C418.7,25.8,416.5,23.6,413.8,23.6z"/>
</g>
<g id="cactus3" display="none">
	<path display="inline" fill="#E2E0D3" d="M449.2,92v5.8c0,3.4,4.6,2.2,4.6,5.7v6.3h4.6v-1.1c0-3.5,4.6-2.2,4.6-5.7v-3
		c-0.1-0.9-0.9-1.7-1.8-1.6c-0.8,0.1-1.5,0.7-1.6,1.6v1.2c0,0.3-0.3,0.6-0.6,0.6l0,0l0,0c-0.3,0-0.6-0.3-0.6-0.6v-12
		c0-1.3-1-2.3-2.3-2.3s-2.3,1-2.3,2.3V96c0,0.3-0.2,0.6-0.6,0.6l0,0c-0.3,0-0.6-0.3-0.6-0.6v-4c0-0.9-0.7-1.7-1.7-1.7c0,0,0,0-0.1,0
		C450,90.3,449.2,91,449.2,92L449.2,92z"/>
</g>
</svg>
