<?xml version="1.0" encoding="utf-8"?>
<!-- Generator: Adobe Illustrator 23.0.6, SVG Export Plug-In . SVG Version: 6.00 Build 0)  -->
<svg version="1.1" id="Capa_1" xmlns="http://www.w3.org/2000/svg" xmlns:xlink="http://www.w3.org/1999/xlink" x="0px" y="0px"
	 viewBox="0 0 22.9 22.6" enable-background="new 0 0 22.9 22.6" xml:space="preserve">
<g id="linea" display="none">
	<line display="inline" fill="none" stroke="#D8D8D8" stroke-miterlimit="10" x1="-4.8" y1="22.5" x2="535.9" y2="22.5"/>
</g>
<path fill="#D8D0B2" d="M9.5,2.6L8.7,3.9l0.3,1.6l0.8,1.2l1.5,0.5l0.6-0.7l0.9-0.2c0,0-1.9-1.9-1.8-1.8s0-1.3-0.1-1.3
	s0.6,0.2,0.4-0.1c-0.2-0.2-0.2-0.8,0-0.8c0.2,0,0.7-0.2,0.7-0.2s1.4,0.1,1.5-0.4S11.9,1,11.9,1s-0.4-0.4-0.5-0.4
	C11.4,0.7,9.5,2.6,9.5,2.6z"/>
<path fill="#D8D0B2" d="M3.5,9.7l-1.7,1.9l-0.8,1.1L1.3,14l2.1,2.8L4.3,16c0,0-1.6-1.7-0.8-2.2s0.9-4.4,0.9-4.4L3.5,9.7z"/>
<g id="planta">
	<g>
		<path fill="#CCC69F" d="M10.9,3.2c-0.2,0-0.3,0.1-0.3,0.3c0,0.4,0.3,1.5,1,2.2c0.2,0.2,0.5,0.4,0.7,0.5c-0.5,0.2-0.9,0.4-1.5,0.4
			l0,0c-0.2,0-0.3,0.1-0.3,0.3c0,0.2,0.1,0.3,0.3,0.3l0,0c0.8,0,1.5-0.4,2.1-0.7c0.6-0.3,1.1-0.6,1.7-0.6c0.2,0,0.3-0.2,0.3-0.3
			c0-0.2-0.2-0.3-0.3-0.3c-0.5,0-1,0.2-1.5,0.4c-0.4,0-0.8-0.2-1.1-0.5c-0.6-0.6-0.9-1.6-0.9-1.8C11.2,3.3,11.1,3.2,10.9,3.2z"/>
		<path fill="#CCC69F" d="M12.3,7.8L12,8.1c-0.1,0.1-0.1,0.3,0,0.4s0.1,0.1,0.2,0.1s0.2,0,0.2-0.1l0.3-0.3c0.1-0.1,0.1-0.3,0-0.4
			C12.6,7.7,12.4,7.7,12.3,7.8z"/>
		<path fill="#CCC69F" d="M12.6,12.8c0.2,0,0.3-0.2,0.2-0.4c0-0.2-0.2-0.3-0.4-0.2c-0.5,0.1-0.8,0.1-1,0.1c-0.2-0.6-0.5-1.1-1.2-1.5
			c-0.2-0.1-0.3,0-0.4,0.1c-0.1,0.2,0,0.3,0.1,0.4c0.6,0.3,0.8,0.7,1,1.3s0.4,1.3,1.2,1.9c0.1,0.1,0.1,0.1,0.2,0.1s0.2,0,0.2-0.1
			c0.1-0.1,0.1-0.3,0-0.4c-0.4-0.4-0.7-0.8-0.8-1.2h0.1C12,12.9,12.3,12.9,12.6,12.8z"/>
		<path fill="#CCC69F" d="M16.2,11.7L15.9,12c-0.1,0.1-0.1,0.3,0,0.4s0.1,0.1,0.2,0.1s0.2,0,0.2-0.1l0.3-0.3c0.1-0.1,0.1-0.3,0-0.4
			C16.6,11.6,16.4,11.6,16.2,11.7z"/>
		<path fill="#CCC69F" d="M1,6.9c0.3-0.2,0.7-0.3,1.2-0.4C1.7,7.2,1.4,8,1.1,8.8C1,9,1.1,9.1,1.3,9.2h0.1c0.1,0,0.3-0.1,0.3-0.2
			C2,8.1,2.4,7.3,3,6.5c0.7,0,1.5,0.1,2,0.4c0.1,0,0.1,0,0.2,0s0.2-0.1,0.3-0.2c0.1-0.2,0-0.3-0.1-0.4C4.9,6,4.3,5.9,3.6,5.8
			c0.2-0.2,0.3-0.4,0.5-0.5C4.4,5,4.6,4.8,4.9,4.5c0,0,0.1,0.1,0.2,0.1c0.3,0.2,0.7,0.4,1,0.5l0,0c0.2,0,0.3-0.1,0.3-0.3
			c0-0.2-0.1-0.3-0.3-0.4C5.9,4.4,5.6,4.2,5.4,4C6,3.5,6.6,3,7.3,2.6c0.1,0,0.1-0.1,0.2-0.1c0.4,0.2,0.7,0.5,1,0.8
			c0.1,0.1,0.2,0.3,0.2,0.4l0,0c0.1,0.2,0.1,0.5,0,0.7c0,0.2,0.1,0.3,0.2,0.4H9c0.1,0,0.3-0.1,0.3-0.2c0.1-0.3,0.1-0.6,0-0.9
			c0.1-0.1,0.1-0.2,0.2-0.3c0.4-0.5,1.5-1.9,1.7-1.9c1.2,0,2.3,0.3,3.4,0.7c-0.4,0.3-0.8,0.6-1.2,0.9l-0.1,0.1
			c-0.1,0.1-0.1,0.3,0,0.4s0.1,0.1,0.2,0.1s0.2,0,0.2-0.1l0.1-0.1c0.4-0.4,0.9-0.8,1.4-1.1c0.8,0.4,1.5,0.8,2.3,1.3
			c0.3,0.2,0.6,0.4,0.9,0.7c-0.3,0.2-0.5,0.5-0.8,0.8c-0.4-0.4-1.1-1-1.8-1.2c-0.2-0.1-0.3,0-0.4,0.2s0,0.3,0.2,0.4
			c0.7,0.2,1.3,0.8,1.6,1.1c-0.7,1-1.1,2.1-1,3c0,0.2,0.2,0.3,0.3,0.3l0,0c0.2,0,0.3-0.2,0.3-0.3c-0.1-0.8,0.4-1.9,1.1-2.9
			c0.3-0.3,0.6-0.7,0.9-0.9c0.4,0.5,0.8,1,1.1,1.6c0.1,0.2,0.3,0.2,0.4,0.2s0.2-0.3,0.2-0.4c-0.3-0.7-0.7-1.2-1.1-1.7
			c0.3-0.2,0.7-0.3,1-0.4c0.2,0,0.3-0.2,0.3-0.4c0-0.2-0.2-0.3-0.4-0.3c-0.4,0-0.9,0.2-1.4,0.5c-0.3-0.3-0.7-0.6-1.1-0.9
			c-0.5-0.3-1-0.6-1.6-0.9c0.1,0,0.2,0,0.3,0.1c0.2,0.1,0.3,0,0.4-0.2s0-0.3-0.2-0.4c-0.5-0.2-1.1-0.2-1.5,0c-1.3-0.6-2.6-1-4.2-1
			c-0.2,0-0.3,0-0.5,0c0-0.1,0-0.1-0.1-0.2c-0.1-0.2-0.3-0.2-0.4-0.2C9.8,0.4,9.8,0.6,9.8,0.7C8.8,0.8,8,1.1,7.2,1.5
			C6.7,1.2,6.2,1.1,6,1.1S5.7,1.2,5.7,1.4S5.8,1.7,6,1.7c0.1,0,0.3,0,0.5,0.1C5.9,2.2,5.3,2.6,4.7,3.1V3c0-0.2-0.2-0.3-0.3-0.3
			C4.3,3.2,4.2,3.3,4.2,3.5S4.3,3.8,4.4,4C4.1,4.3,3.8,4.5,3.5,4.8s-0.6,0.6-0.9,1C1.8,5.8,1,6,0.6,6.3C0.5,6.4,0.4,6.6,0.5,6.7
			C0.7,6.9,0.9,7,1,6.9z M9.9,1.7c-0.2,0.5-0.7,1.1-1,1.4l0,0c0,0,0-0.1-0.1-0.1C8.6,2.7,8.3,2.5,8,2.3C8.6,2,9.2,1.8,9.9,1.7z"/>
		<path fill="#CCC69F" d="M17.9,12L17.9,12c0.2,0,0.3-0.1,0.4-0.3c0-0.3-0.1-0.6-0.3-0.9c-0.2-0.2-0.5-0.4-0.7-0.4l0,0
			c-0.2,0-0.3,0.2-0.3,0.3c0,0.2,0.1,0.3,0.3,0.3c0.1,0.1,0.5,0.3,0.4,0.6C17.6,11.8,17.7,12,17.9,12z"/>
		<path fill="#CCC69F" d="M5.8,11c-0.4,0.1-1.2,0.9-1.3,1.2c-0.1,0.2,0,0.3,0.2,0.4h0.1c0.1,0,0.2-0.1,0.3-0.2
			c0.1-0.2,0.7-0.7,0.9-0.8c0.2-0.1,0.3-0.2,0.2-0.4C6.2,11,6,10.9,5.8,11z"/>
		<path fill="#CCC69F" d="M7.5,16.3c0.4,0.5,1,1.2,1.9,1.6h0.1c0.1,0,0.2-0.1,0.3-0.2c0.1-0.2,0-0.3-0.2-0.4
			c-0.5-0.3-0.9-0.6-1.2-0.9c0.1,0,0.1,0,0.2-0.1c0.7-0.2,1.5-0.4,1.9,0c0.1,0.1,0.2,0.1,0.2,0.1c0.1,0,0.1,0,0.2-0.1
			c0.1-0.1,0.2-0.3,0-0.4c-0.6-0.8-1.7-0.5-2.6-0.3c-0.2,0.1-0.4,0.1-0.5,0.1c-0.6-0.7-1.3-1.5-2.9-1.6c-0.2,0-0.3,0.1-0.3,0.3
			s0.1,0.3,0.3,0.3C6.5,14.9,6.9,15.5,7.5,16.3z"/>
		<path fill="#CCC69F" d="M22.2,12.9c-0.1-0.2-0.3-0.2-0.4-0.1c-0.1,0-0.2,0.1-0.3,0.2c0.1-0.5,0.1-1,0.1-1.5s0-0.9-0.1-1.3
			c0.2-0.4,0.4-0.9,0.3-1.5c0-0.2-0.2-0.3-0.4-0.3c-0.1,0-0.2,0.1-0.2,0.2c0-0.2-0.1-0.4-0.1-0.5c0-0.2-0.2-0.3-0.4-0.2
			c-0.2,0-0.3,0.2-0.2,0.4c0.2,0.6,0.3,1.2,0.4,1.8c-0.1,0.2-0.3,0.5-0.5,0.7l0,0c0-0.1-0.1-0.1-0.2-0.2c-0.5-0.6-1.3-1.7-1-2.5
			c0.1-0.2,0-0.3-0.2-0.4s-0.3,0-0.4,0.2c-0.4,1.1,0.5,2.4,1.1,3.1c0.1,0.1,0.2,0.3,0.3,0.3c-0.3,0.4-0.5,0.8-0.6,1.3
			c0,0.2,0.1,0.3,0.2,0.4c0,0,0,0,0.1,0s0.3-0.1,0.3-0.2c0.1-0.6,0.5-1.1,0.9-1.6l0.1-0.1c0,0.2,0,0.3,0,0.5c0,0.7-0.1,1.3-0.2,2
			c-0.6,0.4-1.2,0.8-1.3,1c-0.1,0.1-0.1,0.3,0.1,0.4c0.1,0,0.1,0.1,0.2,0.1S20,15,20.1,15c0-0.1,0.3-0.3,0.6-0.5
			c-0.2,0.6-0.4,1.1-0.6,1.7c-0.1,0.3-0.3,0.5-0.4,0.7c-0.5,0.2-1,0.2-1.5,0c-0.7-0.2-1.3-0.8-1.8-1.3c0.7-0.2,1.4-0.2,2-0.3
			c0.2,0,0.3-0.2,0.3-0.3c0-0.2-0.2-0.3-0.3-0.3c-2,0.2-4.1,0.6-5.1,2c-0.1,0.1-0.1,0.3,0.1,0.4c0.1,0,0.1,0.1,0.2,0.1
			s0.2,0,0.3-0.1c0.4-0.6,1.1-1,1.9-1.2c0.6,0.7,1.3,1.5,2.3,1.8c0.3,0.1,0.6,0.1,0.9,0.1c0.1,0,0.1,0,0.2,0
			c-0.6,0.6-1.3,1.2-2.1,1.6c-0.2,0.1-0.4,0.2-0.6,0.3c-0.5-0.1-1.1-0.4-1.6-0.7c0.3-0.1,0.5-0.2,0.8-0.3c0.2-0.1,0.2-0.3,0.2-0.4
			c-0.1-0.2-0.3-0.2-0.4-0.2c-0.9,0.4-1.7,0.5-2.4,0.6c-0.6,0.1-1.1,0.2-1.5,0.4c-0.1,0.1-0.2,0.3-0.1,0.4s0.2,0.1,0.3,0.1
			s0.1,0,0.2,0c0.3-0.2,0.7-0.2,1.2-0.3c0.3,0,0.6-0.1,0.9-0.1c0.2,0.1,0.6,0.4,1.1,0.6c0.2,0.1,0.4,0.2,0.5,0.2
			c-1.4,0.7-2.8,1.4-4.3,1.4c-1.3,0-2.5-0.2-3.5-0.6C8,20.5,8,20.3,8,20c0.1,0,0.3-0.1,0.5-0.1c0.5-0.1,1.1-0.3,1.6-0.1
			c0.2,0.1,0.3,0,0.4-0.2c0.1-0.2,0-0.3-0.2-0.4c-0.7-0.2-1.4-0.1-1.9,0.1c-0.1,0-0.3,0.1-0.4,0.1c-0.1-0.3-0.1-0.6-0.3-0.8
			c-0.4-0.9-1-1.5-1.2-1.7c-0.1-0.1-0.3-0.1-0.4,0.1S6,17.3,6.2,17.4c0.1,0.1,0.7,0.6,1,1.5c0.1,0.3,0.2,0.6,0.3,0.9c0,0,0,0,0,0.1
			c0,0.3,0,0.6,0,0.8c-0.4-0.2-0.8-0.4-1.2-0.7c-0.1-0.1-0.3-0.1-0.4,0.1c-0.1,0.1-0.1,0.3,0.1,0.4c0.4,0.3,0.9,0.6,1.4,0.8
			c-0.1,0.2-0.2,0.4-0.3,0.5c-0.1,0.2,0,0.3,0.1,0.4c0,0,0.1,0,0.2,0s0.2-0.1,0.3-0.2c0.1-0.2,0.2-0.4,0.3-0.6
			c1.1,0.4,2.3,0.6,3.7,0.6c1.8,0,3.5-0.9,5-1.8h0.1c0.2,0,0.3,0,0.5,0s0.3,0,0.4-0.1c0.2,0,0.3-0.2,0.2-0.4c0-0.1-0.1-0.1-0.1-0.2
			c1.1-0.6,1.9-1.4,2.6-2.3c0.5-0.2,1-0.4,1.5-0.8c0.1-0.1,0.2-0.3,0.1-0.4s-0.3-0.2-0.4-0.1c-0.2,0.1-0.3,0.2-0.5,0.3
			c0.4-0.7,0.7-1.6,0.8-2.5c0.2-0.2,0.5-0.3,0.7-0.5C22.2,13.2,22.3,13,22.2,12.9z"/>
		<path fill="#CCC69F" d="M3.7,17.5c0.2-0.5,0.4-0.8,0.6-1.1c0.1-0.1,0.1-0.3,0-0.4S4,15.9,3.9,16c-0.2,0.2-0.4,0.5-0.5,0.8
			c-0.2-0.4-0.4-0.7-0.6-1.1c-0.5-0.9-1.1-1.9-1.3-2.9c0.1-0.3,0.2-0.6,0.4-0.9l0,0c0.4,0.4,1.3,1.4,1.3,2.1c0,0.2,0.1,0.3,0.3,0.3
			s0.3-0.1,0.3-0.3c0-1-1-2.1-1.6-2.6v-0.1c0.5-0.6,1.1-0.9,1.7-1.3C4,9.9,4.1,9.9,4.3,9.8c0.1-0.1,0.2-0.3,0.1-0.4
			C4.3,9.3,4.1,9.2,4,9.3c-0.2,0-0.3,0-0.4,0.1c-0.8,0.5-1.5,0.9-2,1.7l0,0l0,0c-0.1,0.1-0.2,0.2-0.2,0.4c0,0,0,0,0-0.1
			c0-0.3,0-0.7,0.1-1.1c0-0.2-0.1-0.3-0.3-0.4C1,9.9,0.9,10,0.8,10.2c-0.1,0.4-0.1,0.8-0.1,1.2s0.1,0.9,0.2,1.3
			c-0.1,0.6-0.2,1.2-0.3,2c0,0.2,0.1,0.3,0.3,0.3l0,0c0.2,0,0.3-0.1,0.3-0.3c0-0.3,0-0.5,0.1-0.7c0.3,0.7,0.6,1.3,1,2
			c0.2,0.4,0.5,0.9,0.7,1.3c0,0.1,0.1,0.2,0.1,0.3c-0.2,0.8-0.3,1.7-0.1,2c0.1,0.1,0.2,0.2,0.3,0.2s0.1,0,0.2,0
			c0.2-0.1,0.2-0.3,0.1-0.4c0-0.1-0.1-0.4,0-0.9c0.2,0.3,0.5,0.7,0.8,1c0.1,0.1,0.1,0.1,0.2,0.1s0.2,0,0.2-0.1
			c0.1-0.1,0.1-0.3,0-0.4C4.4,18.4,4,18,3.7,17.5z"/>
		<path fill="#CCC69F" d="M13.1,11.4c0.2,0.2,0.5,0.3,0.8,0.3s0.6-0.1,0.8-0.3l0.4-0.4c0.1-0.1,0.2-0.2,0.2-0.4
			c0-0.1-0.1-0.3-0.2-0.4l-0.8-0.8c-0.1-0.1-0.2-0.2-0.4-0.2c-0.1,0-0.3,0.1-0.4,0.2l-0.4,0.4C12.7,10.2,12.7,10.9,13.1,11.4
			L13.1,11.4z M13.6,10.3l0.3-0.3l0.7,0.7l-0.4,0.2c-0.2,0.2-0.5,0.2-0.7,0C13.4,10.7,13.4,10.4,13.6,10.3z"/>
		<path fill="#CCC69F" d="M2.7,8.2c-0.1,0.1-0.1,0.3,0,0.4s0.1,0.1,0.2,0.1s0.2,0,0.2-0.1c0.2-0.2,0.6-0.3,0.8-0.2
			c0.2,0,0.3-0.1,0.4-0.3c0-0.2-0.1-0.3-0.3-0.4C3.6,7.7,3,7.8,2.7,8.2z"/>
		<path fill="#CCC69F" d="M8.6,14.3c0.1,0.1,0.1,0.1,0.2,0.1c0.1,0,0.2,0,0.2-0.1c0.1-0.1,0.1-0.3,0-0.4c-0.3-0.3-1-2-0.6-2.9
			c0.2-0.6,0.3-1.6,0.2-2.7c0-0.6-0.2-1.9-0.8-2.5c-0.1-0.1-0.3-0.1-0.4,0s-0.1,0.3,0,0.4C7.7,6.5,7.9,7.4,8,8.4c0,0.5,0,1.1,0,1.5
			c-0.6-1-1.5-1.4-2-1.6C5.9,8.2,5.8,8.2,5.7,8.2c-0.2-0.1-0.3,0-0.4,0.1c-0.1,0.2,0,0.3,0.1,0.4s0.2,0.1,0.4,0.2
			C6.5,9.2,7.4,9.6,7.9,11C7.4,12,8.1,13.8,8.6,14.3z"/>
	</g>
</g>
</svg>
